<svg width="24" height="24" viewBox="0 0 24 24" fill="none" xmlns="http://www.w3.org/2000/svg">
<path d="M11.4619 3.2001C11.549 3.08404 11.6005 2.94522 11.6103 2.80046C11.62 2.65569 11.5876 2.51121 11.5169 2.38451C11.4462 2.25782 11.3402 2.15435 11.2119 2.08665C11.0836 2.01895 10.9384 1.98993 10.7939 2.0031C5.37988 2.4971 2.35788 6.7551 2.02988 11.1081C1.70188 15.4691 4.06688 20.0831 9.48088 21.2741C15.1669 22.5241 20.9529 18.4371 21.4969 12.6281C21.5104 12.4843 21.4821 12.3396 21.4154 12.2115C21.3487 12.0833 21.2464 11.9772 21.1209 11.9058C20.9953 11.8344 20.8518 11.8008 20.7075 11.809C20.5633 11.8172 20.4245 11.8669 20.3079 11.9521C17.4709 14.0211 14.2279 13.2681 12.1719 11.2281C10.1179 9.1891 9.37188 5.9891 11.4619 3.2001Z" fill="#FFEE00"/>
</svg>
