<svg width="15" height="17" viewBox="0 0 15 17" fill="none" xmlns="http://www.w3.org/2000/svg">
<path fill-rule="evenodd" clip-rule="evenodd" d="M11.8121 5.62549C11.3029 5.34021 10.7327 5.18131 10.1493 5.16213C9.56595 5.14294 8.9865 5.26404 8.45964 5.51524L8.28014 5.60074C7.91333 5.77556 7.57189 5.99926 7.26514 6.26574C6.95838 5.99926 6.61694 5.77556 6.25014 5.60074L6.07064 5.51524C5.2869 5.14161 4.39558 5.05981 3.55693 5.28454C2.71828 5.50927 1.98729 6.02578 1.49539 6.74124L1.38289 6.90499C1.05684 7.37905 0.824732 7.91125 0.699136 8.47274L0.641386 8.73124C0.501469 9.35767 0.465154 10.0028 0.533886 10.641L0.568386 10.9625C0.634636 11.578 0.795886 12.1795 1.04589 12.7455L1.17689 13.0415C1.43655 13.6285 1.79066 14.169 2.22514 14.6415L2.40414 14.8365C2.79365 15.2599 3.26075 15.6047 3.78014 15.8522L3.95964 15.938C4.47834 16.1852 5.04812 16.3064 5.62254 16.2917C6.19697 16.277 6.75978 16.1267 7.26514 15.8532C7.77051 16.1267 8.33334 16.2769 8.90776 16.2916C9.48219 16.3063 10.052 16.185 10.5706 15.9377L10.7501 15.8522C11.2695 15.6046 11.7365 15.2597 12.1259 14.8362L12.3051 14.6415C12.7396 14.169 13.0937 13.6285 13.3534 13.0415L13.4841 12.7455C13.7343 12.1793 13.8954 11.5779 13.9616 10.9625L13.9966 10.641C14.0654 10.0027 14.0291 9.35749 13.8889 8.73099L13.8311 8.47274C13.7056 7.91135 13.4736 7.37925 13.1476 6.90524L13.0349 6.74124C12.7181 6.28059 12.2998 5.89886 11.8121 5.62549Z" fill="#F12B2B"/>
<path d="M7.26514 6.26574L6.93714 6.64324L7.26514 6.92849L7.59314 6.64349L7.26514 6.26574ZM7.26514 15.8532L7.50314 15.4137L7.26514 15.285L7.02714 15.4137L7.26514 15.8532ZM10.0699 5.66049C10.5949 5.66724 11.1099 5.80524 11.5676 6.06174L12.0564 5.18949C11.4528 4.85149 10.7743 4.66949 10.0826 4.66049L10.0699 5.66049ZM8.67489 5.96649C9.11033 5.75903 9.58759 5.65434 10.0699 5.66049L10.0826 4.66049C9.44707 4.65244 8.81815 4.79049 8.24439 5.06399L8.67489 5.96649ZM8.49514 6.05224L8.67489 5.96649L8.24439 5.06399L8.06489 5.14949L8.49514 6.05224ZM7.59314 6.64349C7.86573 6.40659 8.16916 6.2077 8.49514 6.05224L8.06489 5.14949C7.65742 5.3438 7.27839 5.59239 6.93764 5.88849L7.59314 6.64349ZM6.03489 6.05224C6.36104 6.20766 6.66464 6.40655 6.93739 6.64349L7.59314 5.88849C7.25231 5.59237 6.87294 5.34378 6.46539 5.14949L6.03489 6.05224ZM5.85539 5.96649L6.03489 6.05224L6.46539 5.14974L6.28564 5.06399L5.85539 5.96649ZM4.46039 5.66049C4.94268 5.65434 5.41995 5.75903 5.85539 5.96649L6.28564 5.06399C5.7118 4.79046 5.08304 4.65241 4.44739 4.66049L4.46039 5.66049ZM2.96264 6.06174C3.42058 5.80533 3.93559 5.6674 4.46039 5.66049L4.44739 4.66049C3.75558 4.66952 3.07725 4.85137 2.47364 5.18949L2.96264 6.06174ZM1.90739 7.02449C2.18073 6.62712 2.54167 6.29783 2.96239 6.06199L2.47364 5.18949C1.91919 5.50028 1.44355 5.93427 1.08339 6.45799L1.90739 7.02449ZM1.79489 7.18824L1.90739 7.02449L1.08339 6.45799L0.970887 6.62174L1.79489 7.18824ZM1.18714 8.58199C1.2987 8.08293 1.50492 7.60989 1.79464 7.18849L0.970637 6.62174C0.608435 7.14852 0.350613 7.73986 0.211137 8.36374L1.18714 8.58199ZM1.12939 8.84024L1.18714 8.58199L0.211137 8.36374L0.153637 8.62199L1.12939 8.84024ZM1.03089 10.5872C0.96805 10.0034 1.00132 9.41337 1.12939 8.84024L0.153637 8.62199C0.00175393 9.30181 -0.0379353 10.0019 0.036637 10.6945L1.03089 10.5872ZM1.06539 10.909L1.03089 10.5872L0.036637 10.6945L0.0711369 11.0162L1.06539 10.909ZM1.50339 12.5435C1.27395 12.0245 1.1262 11.4732 1.06539 10.909L0.0711369 11.0162C0.142979 11.6829 0.317544 12.3345 0.588637 12.9477L1.50339 12.5435ZM1.63414 12.8392L1.50339 12.5432L0.588887 12.9477L0.719387 13.2435L1.63414 12.8392ZM2.59314 14.303C2.19566 13.8707 1.8717 13.3763 1.63414 12.8392L0.719387 13.2435C1.00113 13.8806 1.38564 14.4672 1.85714 14.98L2.59314 14.303ZM2.77239 14.498L2.59314 14.303L1.85714 14.98L2.03614 15.175L2.77239 14.498ZM3.99514 15.401C3.53349 15.1809 3.11858 14.8744 2.77239 14.498L2.03614 15.175C2.46888 15.6455 2.98783 16.0284 3.56489 16.3035L3.99514 15.401ZM4.17464 15.4865L3.99514 15.401L3.56489 16.3035L3.74439 16.3892L4.17464 15.4865ZM5.56989 15.7925C5.08757 15.7986 4.61006 15.694 4.17464 15.4865L3.74439 16.3892C4.31823 16.6628 4.94724 16.8006 5.58289 16.7925L5.56989 15.7925ZM7.02714 15.4137C6.57909 15.6561 6.07922 15.7859 5.56989 15.7925L5.58289 16.7925C6.25388 16.7836 6.9127 16.6124 7.50289 16.293L7.02714 15.4137ZM8.96039 15.7925C8.45106 15.7859 7.95118 15.6561 7.50314 15.4137L7.02714 16.293C7.61742 16.6123 8.27633 16.7837 8.94739 16.7925L8.96039 15.7925ZM10.3554 15.4865C9.91995 15.6939 9.44268 15.7986 8.96039 15.7925L8.94739 16.7925C9.58302 16.8007 10.2118 16.6627 10.7856 16.3892L10.3554 15.4865ZM10.5349 15.401L10.3554 15.4865L10.7859 16.389L10.9654 16.3035L10.5349 15.401ZM11.7579 14.498C11.4117 14.8744 10.9965 15.1809 10.5349 15.401L10.9654 16.3035C11.5424 16.0284 12.0612 15.6452 12.4939 15.1747L11.7579 14.498ZM11.9371 14.303L11.7579 14.498L12.4939 15.1747L12.6731 14.98L11.9371 14.303ZM12.8959 12.8392C12.6584 13.3763 12.3345 13.8707 11.9371 14.303L12.6731 14.98C13.1446 14.4672 13.5289 13.8806 13.8106 13.2435L12.8959 12.8392ZM13.0266 12.5432L12.8959 12.8392L13.8106 13.2435L13.9414 12.9477L13.0266 12.5432ZM13.4646 10.909C13.4039 11.4731 13.256 12.0243 13.0266 12.5432L13.9414 12.9477C14.2125 12.3345 14.3873 11.6829 14.4591 11.0162L13.4646 10.909ZM13.4994 10.5872L13.4646 10.909L14.4591 11.0162L14.4936 10.6945L13.4994 10.5872ZM13.4009 8.84024C13.5291 9.41324 13.5624 10.0035 13.4994 10.5872L14.4936 10.6945C14.5684 10.0017 14.5286 9.30174 14.3766 8.62199L13.4009 8.84024ZM13.3431 8.58199L13.4009 8.84024L14.3766 8.62199L14.3191 8.36374L13.3431 8.58199ZM12.7354 7.18824C13.0251 7.60971 13.2316 8.08284 13.3431 8.58199L14.3189 8.36374C14.1794 7.73986 13.9216 7.14852 13.5594 6.62174L12.7354 7.18824ZM12.6229 7.02449L12.7354 7.18824L13.5594 6.62174L13.4469 6.45799L12.6229 7.02449ZM11.5679 6.06199C11.9886 6.29783 12.3495 6.62712 12.6229 7.02449L13.4469 6.45799C13.0867 5.93424 12.6109 5.50025 12.0564 5.18949L11.5679 6.06199Z" fill="#F12B2B"/>
<path fill-rule="evenodd" clip-rule="evenodd" d="M10.2906 0.569026C10.3449 0.764776 10.3791 0.966026 10.3924 1.17003L10.3949 1.20903C10.4192 1.58776 10.3683 1.96756 10.2451 2.32653L10.2266 2.38103C10.1042 2.73728 9.91304 3.06601 9.66389 3.34853L9.63539 3.38078C9.38021 3.66971 9.07088 3.90582 8.72489 4.07578C8.36457 4.25295 7.97303 4.35784 7.57239 4.38453C7.25845 4.40535 6.9432 4.37623 6.63839 4.29828C6.54795 3.98209 6.51244 3.65273 6.53339 3.32453L6.53614 3.28578C6.56164 2.89478 6.66364 2.51453 6.83689 2.16303L6.85439 2.12803C7.02318 1.7882 7.25701 1.4848 7.54264 1.23503L7.58589 1.19703C7.87007 0.949772 8.20007 0.760775 8.55714 0.640776L8.59789 0.626776C8.96335 0.504193 9.34929 0.454421 9.73389 0.480276C9.92189 0.492776 10.1084 0.522526 10.2906 0.569026Z" fill="#2BC26C"/>
<path d="M10.2906 0.568925L10.8001 0.453925L10.7264 0.188175L10.4339 0.113175L10.2906 0.568925ZM6.63839 4.29817L6.12964 4.41567L6.20439 4.67842L6.49364 4.75342L6.63839 4.29817ZM9.78114 0.683675C9.82739 0.850675 9.85664 1.02292 9.86814 1.19792L10.9166 1.14217C10.9015 0.909453 10.8625 0.678906 10.8001 0.454175L9.78114 0.683675ZM9.86814 1.19792L9.87064 1.23667L10.9194 1.18092L10.9166 1.14217L9.86814 1.19792ZM9.87064 1.23667C9.89127 1.55906 9.84793 1.88235 9.74314 2.18792L10.7476 2.46493C10.8894 2.04792 10.9474 1.61267 10.9194 1.18092L9.87064 1.23667ZM9.74314 2.18792L9.72464 2.24242L10.7289 2.51943L10.7476 2.46493L9.74314 2.18792ZM9.72464 2.24242C9.62215 2.54177 9.46149 2.8179 9.25189 3.05492L10.0759 3.64193C10.3652 3.31431 10.5871 2.93287 10.7289 2.51943L9.72464 2.24242ZM9.25189 3.05492L9.22339 3.08692L10.0474 3.67442L10.0759 3.64193L9.25189 3.05492ZM9.22339 3.08692C9.0132 3.32534 8.7582 3.52012 8.47289 3.66018L8.97714 4.49092C9.38406 4.2916 9.74773 4.01432 10.0474 3.67442L9.22339 3.08692ZM8.47289 3.66018C8.17947 3.80478 7.86053 3.8904 7.53414 3.91217L7.61039 4.85667C8.08557 4.82571 8.55 4.70143 8.97714 4.49092L8.47289 3.66018ZM7.53414 3.91217C7.28173 3.92932 7.0282 3.90603 6.78314 3.84317L6.49364 4.75342C6.85464 4.84667 7.23239 4.88142 7.61039 4.85667L7.53414 3.91217ZM7.14739 4.18067C7.07049 3.91173 7.04022 3.63159 7.05789 3.35242L6.00939 3.29667C5.98464 3.67167 6.02564 4.04942 6.12964 4.41567L7.14739 4.18067ZM7.05789 3.35242L7.06039 3.31368L6.01189 3.25767L6.00939 3.29667L7.05789 3.35242ZM7.06039 3.31368C7.08239 2.97818 7.16964 2.65367 7.31689 2.35517L6.35689 1.97067C6.15813 2.37272 6.04088 2.81012 6.01189 3.25767L7.06039 3.31368ZM7.31689 2.35517L7.33439 2.32042L6.37439 1.93567L6.35689 1.97067L7.31689 2.35517ZM7.33439 2.32042C7.47475 2.03626 7.67001 1.78247 7.90889 1.57417L7.17639 0.895675C6.84353 1.18648 6.57104 1.53984 6.37439 1.93567L7.33439 2.32042ZM7.90889 1.57417L7.95214 1.53617L7.21964 0.857675L7.17639 0.895675L7.90889 1.57417ZM7.95214 1.53617C8.18308 1.33475 8.45156 1.18097 8.74214 1.08367L8.37214 0.197675C7.94832 0.339775 7.55668 0.564053 7.21964 0.857675L7.95214 1.53617ZM8.74214 1.08367L8.78289 1.06992L8.41289 0.183675L8.37189 0.197675L8.74214 1.08367ZM8.78289 1.06992C9.07642 0.970985 9.38662 0.931053 9.69564 0.952425L9.77189 0.0079248C9.31167 -0.0229867 8.85011 0.0367251 8.41289 0.183675L8.78289 1.06992ZM9.69564 0.952425C9.8481 0.962569 9.99932 0.986669 10.1474 1.02442L10.4339 0.113175C10.217 0.0576364 9.99534 0.0225688 9.77189 0.0079248L9.69564 0.952425Z" fill="#2BC26C"/>
</svg>
